<svg data-v-0dd9719b="" version="1.0" xmlns="http://www.w3.org/2000/svg" xmlns:xlink="http://www.w3.org/1999/xlink" width="100%" height="100%" viewBox="0 0 340.000000 250.000000" preserveAspectRatio="xMidYMid meet" color-interpolation-filters="sRGB" style="margin: auto;"> <rect data-v-0dd9719b="" x="0" y="0" width="100%" height="100%" fill="#fff" fill-opacity="1" class="background"></rect> <rect data-v-0dd9719b="" x="0" y="0" width="100%" height="100%" fill="url(#watermark)" fill-opacity="1" class="watermarklayer"></rect> <g data-v-0dd9719b="" fill="#333" class="icon-text-wrapper icon-svg-group iconsvg" transform="translate(48.010284423828125,95.00180053710938)"><g class="iconsvg-imagesvg" transform="translate(0,0)"><g><rect fill="#333" fill-opacity="0" stroke-width="2" x="0" y="0" width="60" height="59.996400215987045" class="image-rect"></rect> <svg x="0" y="0" width="60" height="59.996400215987045" filtersec="colorsb2442275885" class="image-svg-svg primary" style="overflow: visible;"><svg xmlns="http://www.w3.org/2000/svg" viewBox="-0.005915164947509766 -0.0032501220703125 100.00916290283203 100.00305938720703"><path d="M97.79 58.53L87.06 44.81a58.94 58.94 0 0 1-5-7.79L72.32 42l-9.14 27.73 4.92 9.75a60.75 60.75 0 0 1 8.64-3.3l16.78-4.67c6.48-1.81 8.48-7.65 4.27-12.98z" fill="#00d495"></path><path d="M30.27 63.18l-9.76 4.92a58.55 58.55 0 0 1 3.31 8.64l4.67 16.78c1.81 6.52 7.65 8.45 13 4.27l13.7-10.73a58.94 58.94 0 0 1 7.79-5l-4.93-9.75z" fill="#7fe000"></path><path d="M36.82 30.27l-4.93-9.76a57.37 57.37 0 0 1-8.63 3.31L6.48 28.49C0 30.3-2 36.14 2.2 41.47l10.74 13.72a58.94 58.94 0 0 1 5 7.79l9.75-4.93z" fill="#00a2ff"></path><path d="M69.73 36.82l9.75-4.92a60 60 0 0 1-3.3-8.64L71.51 6.48C69.7 0 63.85-2 58.53 2.21L44.81 12.94a58.94 58.94 0 0 1-7.79 5L42 27.68z" fill="#00c0d9"></path></svg></svg> <!----></g></g> <g transform="translate(67,10.723199844360352)"><g data-gra="path-name" fill-rule="" class="tp-name iconsvg-namesvg"><g transform="scale(1)"><g><path d="M30.87-26.23L30.87-26.23 26.23-26.23Q25.83-33.3 16.95-33.7L16.95-33.7Q8.68-33.5 8.68-27.24L8.68-27.24Q8.68-23.21 13.12-22.6L13.12-22.6 23.61-20.18Q31.88-18.16 31.88-10.09L31.88-10.09Q31.68 0.2 17.35 0.61L17.35 0.61Q9.48 0.61 6.26-2.62L6.26-2.62Q2.22-5.65 2.42-11.91L2.42-11.91 7.26-11.91Q7.47-3.43 17.35-3.23L17.35-3.23Q27.04-3.43 27.24-9.48L27.24-9.48Q28.05-14.53 19.17-16.14L19.17-16.14 11.5-17.76Q3.63-19.98 3.63-26.64L3.63-26.64Q4.24-37.53 16.55-37.94L16.55-37.94Q30.47-37.94 30.87-26.23ZM62.56-13.72L62.56-36.93 67.6-36.93 67.6-13.12Q67 0.2 52.47 0.61L52.47 0.61Q38.95 0.2 38.34-12.31L38.34-12.31 38.34-36.93 43.39-36.93 43.39-13.72Q43.59-3.63 52.67-3.43L52.67-3.43Q62.56-3.63 62.56-13.72L62.56-13.72ZM81.32-36.93L99.89-7.06 99.89-36.93 104.73-36.93 104.73 0 99.08 0 80.31-29.87 80.11-29.87 80.11 0 75.27 0 75.27-36.93 81.32-36.93ZM118.45-36.93L137.02-7.06 137.02-36.93 141.86-36.93 141.86 0 136.21 0 117.44-29.87 117.24-29.87 117.24 0 112.4 0 112.4-36.93 118.45-36.93ZM179.39-36.93L165.47-14.93 165.47 0 160.43 0 160.43-14.93 146.5-36.93 152.35-36.93 162.85-19.17 173.54-36.93 179.39-36.93Z" transform="translate(-2.410566568374634, 37.939998626708984)"></path></g> <!----> <!----> <!----> <!----> <!----> <!----> <!----></g></g> <!----></g></g><defs v-gra="od"></defs></svg>